<?xml version="1.0" encoding="UTF-8" standalone="no"?><!DOCTYPE svg PUBLIC "-//W3C//DTD SVG 1.1//EN" "http://www.w3.org/Graphics/SVG/1.1/DTD/svg11.dtd"><svg width="100%" height="100%" viewBox="0 0 2134 2134" version="1.1" xmlns="http://www.w3.org/2000/svg" xmlns:xlink="http://www.w3.org/1999/xlink" xml:space="preserve" xmlns:serif="http://www.serif.com/" style="fill-rule:evenodd;clip-rule:evenodd;stroke-linejoin:round;stroke-miterlimit:2;"><path d="M1933.33,133.333l-1733.33,0c-110.458,0 -200,89.542 -200,200l0,1466.67c0,110.458 89.542,200 200,200l1733.33,0c110.459,0 200,-89.542 200,-200l0,-1466.67c0,-110.458 -89.541,-200 -200,-200Zm-25,1666.67l-1683.33,0c-13.715,0 -25,-11.285 -25,-25l0,-1416.67c0,-13.714 11.285,-25 25,-25l1683.33,0c13.715,0 25,11.286 25,25l0,1416.67c0,13.715 -11.285,25 -25,25Zm-175,-383.333l0,100c0,27.612 -22.387,50 -50,50l-833.333,-0c-27.613,-0 -50,-22.388 -50,-50l-0,-100c-0,-27.613 22.387,-50 50,-50l833.333,-0c27.613,-0 50,22.387 50,50Zm0,-400l0,100c0,27.612 -22.387,50 -50,50l-833.333,-0c-27.613,-0 -50,-22.388 -50,-50l-0,-100c-0,-27.613 22.387,-50 50,-50l833.333,-0c27.613,-0 50,22.387 50,50Zm0,-400l0,100c0,27.612 -22.387,50 -50,50l-833.333,-0c-27.613,-0 -50,-22.388 -50,-50l-0,-100c-0,-27.613 22.387,-50 50,-50l833.333,-0c27.613,-0 50,22.387 50,50Zm-1050,50c0,82.841 -67.158,150 -150,150c-82.841,-0 -150,-67.159 -150,-150c0,-82.842 67.159,-150 150,-150c82.842,-0 150,67.158 150,150Zm0,400c0,82.841 -67.158,150 -150,150c-82.841,-0 -150,-67.159 -150,-150c0,-82.842 67.159,-150 150,-150c82.842,-0 150,67.158 150,150Zm0,400c0,82.841 -67.158,150 -150,150c-82.841,-0 -150,-67.159 -150,-150c0,-82.842 67.159,-150 150,-150c82.842,-0 150,67.158 150,150Z" style="fill:#5f5f9f;fill-rule:nonzero;"/></svg>